# xmcd
#
# Track frame offsets:
#	150
#	11012
#	34374
#	46263
#	60081
#	76834
#	89103
#	112793
#	125882
#	148565
#	161257
#	182714
#
# Disc length: 2575 seconds
#
# Revision: 0
# Processed by: cddbd v1.5.2PL0 Copyright (c) Steve Scherf et al.
# Submitted via: dBpowerAMP V4.0
#
DISCID=950a0d0c
DTITLE=Virginia Crossroads Bluegrass Band - Spirit of Bluegrass
DYEAR=1900
DGENRE=Bluegrass
TTITLE0=Spirit of Bluegrass
TTITLE1=Wait a Minute
TTITLE2=Redwood Hill
TTITLE3=Blues for Vickie
TTITLE4=Man in the Middle
TTITLE5=I Don't Know Why I Love You
TTITLE6=Fair anf Tender Ladies
TTITLE7=My Girl
TTITLE8=The Night They Drove Old Dixie Down
TTITLE9=Hot Corn, Cold Corn
TTITLE10=Were You There
TTITLE11=Farewell Blues
EXTD=Submitted by Rich Price
EXTT0=
EXTT1=
EXTT2=
EXTT3=
EXTT4=
EXTT5=
EXTT6=
EXTT7=
EXTT8=
EXTT9=
EXTT10=
EXTT11=
PLAYORDER=
